<?xml version="1.0" encoding="UTF-8" standalone="no"?>
<!-- Created with Inkscape (http://www.inkscape.org/) -->

<svg
   xmlns:dc="http://purl.org/dc/elements/1.1/"
   xmlns:cc="http://creativecommons.org/ns#"
   xmlns:rdf="http://www.w3.org/1999/02/22-rdf-syntax-ns#"
   xmlns:svg="http://www.w3.org/2000/svg"
   xmlns="http://www.w3.org/2000/svg"
   xmlns:xlink="http://www.w3.org/1999/xlink"
   xmlns:sodipodi="http://sodipodi.sourceforge.net/DTD/sodipodi-0.dtd"
   xmlns:inkscape="http://www.inkscape.org/namespaces/inkscape"
   width="744.09448819"
   height="1052.3622047"
   id="svg2"
   version="1.1"
   inkscape:version="0.48.2 r9819"
   sodipodi:docname="backpack.svg"
   inkscape:export-filename="/home/ijontichy/projects/quakeweps/QPAKA0.png"
   inkscape:export-xdpi="89.890274"
   inkscape:export-ydpi="89.890274">
  <defs
     id="defs4">
    <linearGradient
       id="linearGradient3944">
      <stop
         style="stop-color:#800067;stop-opacity:1;"
         offset="0"
         id="stop3946" />
      <stop
         id="stop3954"
         offset="0.25"
         style="stop-color:#d000a6;stop-opacity:1;" />
      <stop
         id="stop3952"
         offset="0.5"
         style="stop-color:#d400aa;stop-opacity:1;" />
      <stop
         style="stop-color:#dc00b0;stop-opacity:1;"
         offset="0.75"
         id="stop3956" />
      <stop
         style="stop-color:#ff01cd;stop-opacity:1;"
         offset="1"
         id="stop3948" />
    </linearGradient>
    <linearGradient
       id="linearGradient3922">
      <stop
         style="stop-color:#b80094;stop-opacity:1;"
         offset="0"
         id="stop3924" />
      <stop
         id="stop3934"
         offset="0.25"
         style="stop-color:#d000a6;stop-opacity:1;" />
      <stop
         id="stop3930"
         offset="0.5"
         style="stop-color:#d400aa;stop-opacity:1;" />
      <stop
         style="stop-color:#d800ad;stop-opacity:1;"
         offset="0.75"
         id="stop3932" />
      <stop
         style="stop-color:#ff01cd;stop-opacity:1;"
         offset="1"
         id="stop3926" />
    </linearGradient>
    <linearGradient
       id="linearGradient3900">
      <stop
         style="stop-color:#e000b3;stop-opacity:1;"
         offset="0"
         id="stop3902" />
      <stop
         id="stop3910"
         offset="0.25"
         style="stop-color:#dc14b4;stop-opacity:1;" />
      <stop
         id="stop3908"
         offset="0.5"
         style="stop-color:#ef31ca;stop-opacity:1;" />
      <stop
         style="stop-color:#f749d4;stop-opacity:1;"
         offset="0.75"
         id="stop3912" />
      <stop
         style="stop-color:#ff81e6;stop-opacity:1;"
         offset="1"
         id="stop3904" />
    </linearGradient>
    <linearGradient
       id="linearGradient3886">
      <stop
         style="stop-color:#800066;stop-opacity:1;"
         offset="0"
         id="stop3888" />
      <stop
         id="stop3896"
         offset="0.25"
         style="stop-color:#e000b3;stop-opacity:1;" />
      <stop
         id="stop3894"
         offset="0.5"
         style="stop-color:#ff00cc;stop-opacity:1;" />
      <stop
         style="stop-color:#ff41d9;stop-opacity:1;"
         offset="0.75"
         id="stop3898" />
      <stop
         style="stop-color:#ff81e6;stop-opacity:1;"
         offset="1"
         id="stop3890" />
    </linearGradient>
    <linearGradient
       id="linearGradient3872">
      <stop
         style="stop-color:#c000c0;stop-opacity:1;"
         offset="0"
         id="stop3874" />
      <stop
         id="stop3882"
         offset="0.25"
         style="stop-color:#e000e0;stop-opacity:1;" />
      <stop
         id="stop3880"
         offset="0.5"
         style="stop-color:#ff00ff;stop-opacity:1;" />
      <stop
         style="stop-color:#ff41ff;stop-opacity:1;"
         offset="0.75"
         id="stop3884" />
      <stop
         style="stop-color:#ff81ff;stop-opacity:1;"
         offset="1"
         id="stop3876" />
    </linearGradient>
    <linearGradient
       inkscape:collect="always"
       xlink:href="#linearGradient3872"
       id="linearGradient3878"
       x1="-0.57241321"
       y1="994.36219"
       x2="96.917203"
       y2="994.36219"
       gradientUnits="userSpaceOnUse" />
    <linearGradient
       inkscape:collect="always"
       xlink:href="#linearGradient3886"
       id="linearGradient3892"
       x1="-0.17930984"
       y1="957.01737"
       x2="96.5241"
       y2="957.01737"
       gradientUnits="userSpaceOnUse" />
    <linearGradient
       inkscape:collect="always"
       xlink:href="#linearGradient3900"
       id="linearGradient3906"
       x1="14.5"
       y1="986.11218"
       x2="38"
       y2="986.11218"
       gradientUnits="userSpaceOnUse" />
    <linearGradient
       inkscape:collect="always"
       xlink:href="#linearGradient3900"
       id="linearGradient3920"
       x1="14.5"
       y1="986.11218"
       x2="38"
       y2="986.11218"
       gradientUnits="userSpaceOnUse" />
    <linearGradient
       inkscape:collect="always"
       xlink:href="#linearGradient3922"
       id="linearGradient3928"
       x1="14.5"
       y1="991.11219"
       x2="38"
       y2="991.11219"
       gradientUnits="userSpaceOnUse" />
    <linearGradient
       inkscape:collect="always"
       xlink:href="#linearGradient3922"
       id="linearGradient3942"
       x1="14.5"
       y1="991.11218"
       x2="38"
       y2="991.11218"
       gradientUnits="userSpaceOnUse" />
    <linearGradient
       inkscape:collect="always"
       xlink:href="#linearGradient3944"
       id="linearGradient3950"
       x1="59.179287"
       y1="972.74151"
       x2="72.544799"
       y2="972.74151"
       gradientUnits="userSpaceOnUse" />
    <linearGradient
       inkscape:collect="always"
       xlink:href="#linearGradient3944"
       id="linearGradient3964"
       x1="23.79999"
       y1="972.74152"
       x2="37.165504"
       y2="972.74152"
       gradientUnits="userSpaceOnUse" />
    <linearGradient
       inkscape:collect="always"
       xlink:href="#linearGradient3944"
       id="linearGradient3972"
       x1="70.972382"
       y1="931.46564"
       x2="88.268929"
       y2="931.46564"
       gradientUnits="userSpaceOnUse" />
    <linearGradient
       inkscape:collect="always"
       xlink:href="#linearGradient3944"
       id="linearGradient3980"
       x1="12.006892"
       y1="931.46564"
       x2="29.303436"
       y2="931.46564"
       gradientUnits="userSpaceOnUse" />
  </defs>
  <sodipodi:namedview
     id="base"
     pagecolor="#ffffff"
     bordercolor="#666666"
     borderopacity="1.0"
     inkscape:pageopacity="0.0"
     inkscape:pageshadow="2"
     inkscape:zoom="1"
     inkscape:cx="107.14696"
     inkscape:cy="126.75438"
     inkscape:document-units="px"
     inkscape:current-layer="layer1"
     showgrid="false"
     inkscape:window-width="1680"
     inkscape:window-height="1003"
     inkscape:window-x="0"
     inkscape:window-y="0"
     inkscape:window-maximized="1">
    <inkscape:grid
       type="xygrid"
       id="grid2985" />
  </sodipodi:namedview>
  <metadata
     id="metadata7">
    <rdf:RDF>
      <cc:Work
         rdf:about="">
        <dc:format>image/svg+xml</dc:format>
        <dc:type
           rdf:resource="http://purl.org/dc/dcmitype/StillImage" />
        <dc:title></dc:title>
      </cc:Work>
    </rdf:RDF>
  </metadata>
  <g
     inkscape:label="Layer 1"
     inkscape:groupmode="layer"
     id="layer1">
    <path
       sodipodi:nodetypes="cccc"
       inkscape:connector-curvature="0"
       id="path3826"
       d="m 71.758592,937.36218 15.724132,0 c 0,-7.86206 -3.931033,-11.7931 -7.862066,-11.7931 -3.931033,0 -7.862066,3.93104 -7.862066,11.7931 z"
       style="fill:url(#linearGradient3972);stroke:#000000;stroke-width:1.57241320999999967px;stroke-linecap:butt;stroke-linejoin:miter;stroke-opacity:1;fill-opacity:1.0" />
    <path
       style="fill:url(#linearGradient3980);stroke:#000000;stroke-width:1.57241320999999967px;stroke-linecap:butt;stroke-linejoin:miter;stroke-opacity:1;fill-opacity:1.0"
       d="m 12.793099,937.36218 15.724131,0 c 0,-7.86206 -3.931033,-11.7931 -7.862065,-11.7931 -3.931033,0 -7.862066,3.93104 -7.862066,11.7931 z"
       id="path3824"
       inkscape:connector-curvature="0"
       sodipodi:nodetypes="cccc" />
    <path
       style="fill:url(#linearGradient3878);stroke:#000000;stroke-width:3.14482640999999985;stroke-linecap:butt;stroke-linejoin:miter;stroke-miterlimit:4;stroke-opacity:1;stroke-dasharray:none;fill-opacity:1"
       d="M 12.793099,1051.3622 C 4.9310329,1051.3622 1,1047.4312 1,1039.5691 l 0,-90.41382 c 0,-7.86206 3.9310329,-11.7931 11.793099,-11.7931 l 70.758592,0 c 7.862066,0 11.793099,4.71726 11.793099,11.7931 l 0,87.26902 c 0,7.862 -3.931033,14.9379 -11.793099,14.9379 z"
       id="path3054"
       inkscape:connector-curvature="0"
       sodipodi:nodetypes="ccccccccc" />
    <g
       id="g3834"
       transform="matrix(1.5724132,0,0,1.5724132,-14.724132,-548.35154)">
      <path
         sodipodi:nodetypes="ccccccccc"
         inkscape:connector-curvature="0"
         id="path3828"
         d="m 15,984.86218 5,-5 12.5,0 5,5 0,12.5 c 0,2.5 -2.5,5.00002 -5,5.00002 l -12.5,0 c -2.5,0 -5,-2.50002 -5,-5.00002 z"
         style="fill:url(#linearGradient3942);stroke:#000000;stroke-width:1px;stroke-linecap:butt;stroke-linejoin:miter;stroke-opacity:1;fill-opacity:1.0" />
      <path
         sodipodi:nodetypes="ccccccccc"
         inkscape:connector-curvature="0"
         id="path3830"
         d="m 15,984.86218 c 0,-2.5 2.5,-5 5,-5 l 12.5,0 c 2.5,0 5,2.5 5,5 l 0,2.5 c -2.5,2.5 -2.5,5 -5,5 l -12.5,0 c -2.5,0 -2.5,-2.5 -5,-5 z"
         style="fill:url(#linearGradient3906);stroke:#000000;stroke-width:1px;stroke-linecap:butt;stroke-linejoin:miter;stroke-opacity:1;fill-opacity:1" />
      <path
         d="m 27.5,988.61218 c 0,0.69036 -0.559644,1.25 -1.25,1.25 -0.690356,0 -1.25,-0.55964 -1.25,-1.25 0,-0.69035 0.559644,-1.25 1.25,-1.25 0.690356,0 1.25,0.55965 1.25,1.25 z"
         sodipodi:ry="1.25"
         sodipodi:rx="1.25"
         sodipodi:cy="988.61218"
         sodipodi:cx="26.25"
         id="path3832"
         style="fill:#d400aa;fill-opacity:1;stroke:#000000;stroke-width:0.5;stroke-linejoin:round;stroke-miterlimit:4;stroke-opacity:1;stroke-dasharray:none"
         sodipodi:type="arc" />
    </g>
    <g
       id="g3839"
       transform="matrix(1.5724132,0,0,1.5724132,28.51723,-548.35154)">
      <path
         style="fill:url(#linearGradient3928);stroke:#000000;stroke-width:1px;stroke-linecap:butt;stroke-linejoin:miter;stroke-opacity:1;fill-opacity:1"
         d="m 15,984.86218 5,-5 12.5,0 5,5 0,12.5 c 0,2.5 -2.5,5.00002 -5,5.00002 l -12.5,0 c -2.5,0 -5,-2.50002 -5,-5.00002 z"
         id="path3841"
         inkscape:connector-curvature="0"
         sodipodi:nodetypes="ccccccccc" />
      <path
         style="fill:url(#linearGradient3920);stroke:#000000;stroke-width:1px;stroke-linecap:butt;stroke-linejoin:miter;stroke-opacity:1;fill-opacity:1.0"
         d="m 15,984.86218 c 0,-2.5 2.5,-5 5,-5 l 12.5,0 c 2.5,0 5,2.5 5,5 l 0,2.5 c -2.5,2.5 -2.5,5 -5,5 l -12.5,0 c -2.5,0 -2.5,-2.5 -5,-5 z"
         id="path3843"
         inkscape:connector-curvature="0"
         sodipodi:nodetypes="ccccccccc" />
      <path
         sodipodi:type="arc"
         style="fill:#d400aa;fill-opacity:1;stroke:#000000;stroke-width:0.5;stroke-linejoin:round;stroke-miterlimit:4;stroke-opacity:1;stroke-dasharray:none"
         id="path3845"
         sodipodi:cx="26.25"
         sodipodi:cy="988.61218"
         sodipodi:rx="1.25"
         sodipodi:ry="1.25"
         d="m 27.5,988.61218 c 0,0.69036 -0.559644,1.25 -1.25,1.25 -0.690356,0 -1.25,-0.55964 -1.25,-1.25 0,-0.69035 0.559644,-1.25 1.25,-1.25 0.690356,0 1.25,0.55965 1.25,1.25 z" />
    </g>
    <path
       style="fill:url(#linearGradient3892);stroke:#000000;stroke-width:2.35861968999999982;stroke-linecap:butt;stroke-linejoin:miter;stroke-miterlimit:4;stroke-opacity:1;stroke-dasharray:none;fill-opacity:1"
       d="m 1,949.15528 c 0,-7.86206 3.9310329,-11.7931 11.793099,-11.7931 l 70.758592,0 c 7.862066,0 11.793099,3.93104 11.793099,11.7931 l 0,15.72413 c -7.862066,11.79316 -7.862066,11.79316 -11.793099,11.79316 l -70.758592,0 c -3.9310332,0 -3.9310332,0 -11.793099,-11.79316 z"
       id="path3847"
       inkscape:connector-curvature="0"
       sodipodi:nodetypes="ccccccccc" />
    <path
       style="fill:url(#linearGradient3964);stroke:#000000;stroke-width:1.57241320999999967px;stroke-linecap:butt;stroke-linejoin:round;stroke-opacity:1;fill-opacity:1.0"
       d="m 28.51723,984.53464 c -1.572413,0 -1.572413,0 -3.931033,-3.93103 l 0,-15.7242 c 0,-1.57241 1.572414,-3.93103 3.931033,-3.93103 l 3.931033,0 c 1.572413,0 3.931033,2.35862 3.931033,3.93103 l 0,15.7242 c -2.35862,3.93103 -2.35862,3.93103 -3.931033,3.93103 z"
       id="path3849"
       inkscape:connector-curvature="0"
       sodipodi:nodetypes="ccccccccc" />
    <path
       sodipodi:nodetypes="ccccccccc"
       inkscape:connector-curvature="0"
       id="path3851"
       d="m 63.896527,984.53464 c -1.572414,0 -1.572414,0 -3.931033,-3.93103 l 0,-15.7242 c 0,-1.57241 1.572413,-3.93103 3.931033,-3.93103 l 3.931033,0 c 1.572413,0 3.931032,2.35862 3.931032,3.93103 l 0,15.7242 c -2.358619,3.93103 -2.358619,3.93103 -3.931032,3.93103 z"
       style="fill:url(#linearGradient3950);stroke:#000000;stroke-width:1.57241320999999967px;stroke-linecap:butt;stroke-linejoin:round;stroke-opacity:1;fill-opacity:1" />
  </g>
</svg>
