<?xml version="1.0" encoding="UTF-8" standalone="no"?>
<!-- Created with Inkscape (http://www.inkscape.org/) -->

<svg
   xmlns:dc="http://purl.org/dc/elements/1.1/"
   xmlns:cc="http://creativecommons.org/ns#"
   xmlns:rdf="http://www.w3.org/1999/02/22-rdf-syntax-ns#"
   xmlns:svg="http://www.w3.org/2000/svg"
   xmlns="http://www.w3.org/2000/svg"
   xmlns:sodipodi="http://sodipodi.sourceforge.net/DTD/sodipodi-0.dtd"
   xmlns:inkscape="http://www.inkscape.org/namespaces/inkscape"
   width="744.09448819"
   height="1052.3622047"
   id="svg3071"
   version="1.1"
   inkscape:version="0.48.2 r9819"
   sodipodi:docname="invis.svg">
  <defs
     id="defs3073">
    <filter
       inkscape:collect="always"
       id="filter3904">
      <feGaussianBlur
         inkscape:collect="always"
         stdDeviation="0.47736227"
         id="feGaussianBlur3906" />
    </filter>
    <filter
       inkscape:collect="always"
       id="filter3933">
      <feGaussianBlur
         inkscape:collect="always"
         stdDeviation="0.40857547"
         id="feGaussianBlur3935" />
    </filter>
  </defs>
  <sodipodi:namedview
     id="base"
     pagecolor="#ffffff"
     bordercolor="#666666"
     borderopacity="1.0"
     inkscape:pageopacity="0.0"
     inkscape:pageshadow="2"
     inkscape:zoom="7.9807798"
     inkscape:cx="18.916691"
     inkscape:cy="74.074727"
     inkscape:document-units="px"
     inkscape:current-layer="g3877"
     showgrid="false"
     inkscape:window-width="1680"
     inkscape:window-height="1003"
     inkscape:window-x="0"
     inkscape:window-y="0"
     inkscape:window-maximized="1">
    <inkscape:grid
       type="xygrid"
       id="grid3091" />
  </sodipodi:namedview>
  <metadata
     id="metadata3076">
    <rdf:RDF>
      <cc:Work
         rdf:about="">
        <dc:format>image/svg+xml</dc:format>
        <dc:type
           rdf:resource="http://purl.org/dc/dcmitype/StillImage" />
        <dc:title></dc:title>
      </cc:Work>
    </rdf:RDF>
  </metadata>
  <g
     inkscape:label="Layer 1"
     inkscape:groupmode="layer"
     id="layer1">
    <g
       id="g3877"
       transform="translate(-5.9075535,-4.5635382)">
      <path
         sodipodi:nodetypes="ccccccccczczzzcccccccc"
         inkscape:connector-curvature="0"
         id="path3093"
         d="m 9.907554,1032.9257 c 0,4 14.092446,3.4365 14.092446,-0.5635 1.907553,-27.4365 5.907553,-27.4365 8,0 0,4 13.907553,4.5635 13.907553,0.5635 0,0 0,-4 -8,-4 0,-4 -1.907553,-16.5635 -1.907553,-16.5635 0,0 0,-20.00002 0,-24.00002 4,4 5.907553,16.56352 5.907553,16.56352 -4,12 8,4 4,0 0,0 -1.907553,-20.56352 -5.907553,-24.56352 -4,-4 -8,-4 -8,-4 0,0 0.942809,-5.17157 0,-8 -0.942809,-2.82842 -1.018576,-4 -4,-4 -2.981424,0 -3.057191,1.17158 -4,4 -0.942809,2.82843 0,8 0,8 0,0 -4,0 -8,4 -4,8 -6.0924465,20.56352 -6.0924465,24.56352 -4,4 7.9999995,12 3.9999995,0 0,0 2.092447,-12.56352 6.092447,-16.56352 0,4 0,14.66672 0,24.00002 0,0 -2.092447,12.5635 -2.092447,16.5635 -7.999999,0 -7.999999,4 -7.999999,4 z"
         style="fill:none;stroke:#808080;stroke-width:2;stroke-linecap:butt;stroke-linejoin:round;stroke-miterlimit:4;stroke-opacity:1;stroke-dasharray:none" />
      <path
         style="fill:none;stroke:#0000ff;stroke-width:0.75;stroke-linecap:butt;stroke-linejoin:round;stroke-miterlimit:4;stroke-opacity:1;stroke-dasharray:none;filter:url(#filter3933)"
         d="m 9.907554,1032.9257 c 0,4 14.092446,3.4365 14.092446,-0.5635 1.907553,-27.4365 5.907553,-27.4365 8,0 0,4 13.907553,4.5635 13.907553,0.5635 0,0 0,-4 -8,-4 0,-4 -1.907553,-16.5635 -1.907553,-16.5635 0,0 0,-20.00002 0,-24.00002 4,4 5.907553,16.56352 5.907553,16.56352 -4,12 8,4 4,0 0,0 -1.907553,-20.56352 -5.907553,-24.56352 -4,-4 -8,-4 -8,-4 0,0 0.942809,-5.17157 0,-8 -0.942809,-2.82842 -1.018576,-4 -4,-4 -2.981424,0 -3.057191,1.17158 -4,4 -0.942809,2.82843 0,8 0,8 0,0 -4,0 -8,4 -4,8 -6.0924465,20.56352 -6.0924465,24.56352 -4,4 7.9999995,12 3.9999995,0 0,0 2.092447,-12.56352 6.092447,-16.56352 0,4 0,14.66672 0,24.00002 0,0 -2.092447,12.5635 -2.092447,16.5635 -7.999999,0 -7.999999,4 -7.999999,4 z"
         id="path3927"
         inkscape:connector-curvature="0"
         sodipodi:nodetypes="ccccccccczczzzcccccccc" />
    </g>
  </g>
</svg>
