<?xml version="1.0" encoding="UTF-8" standalone="no"?>
<!-- Created with Inkscape (http://www.inkscape.org/) -->

<svg
   xmlns:dc="http://purl.org/dc/elements/1.1/"
   xmlns:cc="http://creativecommons.org/ns#"
   xmlns:rdf="http://www.w3.org/1999/02/22-rdf-syntax-ns#"
   xmlns:svg="http://www.w3.org/2000/svg"
   xmlns="http://www.w3.org/2000/svg"
   xmlns:xlink="http://www.w3.org/1999/xlink"
   xmlns:sodipodi="http://sodipodi.sourceforge.net/DTD/sodipodi-0.dtd"
   xmlns:inkscape="http://www.inkscape.org/namespaces/inkscape"
   width="744.09448819"
   height="1052.3622047"
   id="svg5410"
   version="1.1"
   inkscape:version="0.48.2 r9819"
   sodipodi:docname="ng.svg">
  <defs
     id="defs5412">
    <linearGradient
       id="linearGradient5981">
      <stop
         id="stop5983"
         offset="0"
         style="stop-color:#c1d0ff;stop-opacity:1;" />
      <stop
         style="stop-color:#8181ff;stop-opacity:1;"
         offset="0.25"
         id="stop5985" />
      <stop
         style="stop-color:#2a2aff;stop-opacity:1;"
         offset="0.5"
         id="stop5987" />
      <stop
         id="stop5989"
         offset="0.75"
         style="stop-color:#0000c0;stop-opacity:1;" />
      <stop
         id="stop5991"
         offset="1"
         style="stop-color:#000080;stop-opacity:1;" />
    </linearGradient>
    <linearGradient
       id="linearGradient5930">
      <stop
         style="stop-color:#fff2c1;stop-opacity:1;"
         offset="0"
         id="stop5932" />
      <stop
         id="stop5946"
         offset="0.25"
         style="stop-color:#ffe681;stop-opacity:1;" />
      <stop
         id="stop5944"
         offset="0.5"
         style="stop-color:#ffd42a;stop-opacity:1;" />
      <stop
         style="stop-color:#c09900;stop-opacity:1;"
         offset="0.75"
         id="stop5948" />
      <stop
         style="stop-color:#806600;stop-opacity:1;"
         offset="1"
         id="stop5934" />
    </linearGradient>
    <linearGradient
       inkscape:collect="always"
       xlink:href="#linearGradient5981"
       id="linearGradient5936"
       x1="0.29869345"
       y1="1036.8051"
       x2="0.29869345"
       y2="1052.3743"
       gradientUnits="userSpaceOnUse" />
    <linearGradient
       inkscape:collect="always"
       xlink:href="#linearGradient5981"
       id="linearGradient5954"
       gradientUnits="userSpaceOnUse"
       x1="0.29869345"
       y1="1036.8051"
       x2="0.29869345"
       y2="1052.3743"
       gradientTransform="translate(0,-15.000034)" />
    <linearGradient
       inkscape:collect="always"
       xlink:href="#linearGradient5981"
       id="linearGradient5979"
       gradientUnits="userSpaceOnUse"
       gradientTransform="translate(0,-7.5000858)"
       x1="0.29869345"
       y1="1036.8051"
       x2="0.29869345"
       y2="1052.3743" />
  </defs>
  <sodipodi:namedview
     id="base"
     pagecolor="#ffffff"
     bordercolor="#666666"
     borderopacity="1.0"
     inkscape:pageopacity="0.0"
     inkscape:pageshadow="2"
     inkscape:zoom="5.6568542"
     inkscape:cx="36.714841"
     inkscape:cy="50.715033"
     inkscape:document-units="px"
     inkscape:current-layer="layer1"
     showgrid="false"
     inkscape:window-width="1680"
     inkscape:window-height="1003"
     inkscape:window-x="0"
     inkscape:window-y="0"
     inkscape:window-maximized="1" />
  <metadata
     id="metadata5415">
    <rdf:RDF>
      <cc:Work
         rdf:about="">
        <dc:format>image/svg+xml</dc:format>
        <dc:type
           rdf:resource="http://purl.org/dc/dcmitype/StillImage" />
        <dc:title></dc:title>
      </cc:Work>
    </rdf:RDF>
  </metadata>
  <g
     inkscape:label="Layer 1"
     inkscape:groupmode="layer"
     id="layer1">
    <path
       style="fill:url(#linearGradient5936);stroke:#000000;stroke-width:1px;stroke-linecap:butt;stroke-linejoin:miter;stroke-opacity:1;fill-opacity:1.0"
       d="m 0,1037.3622 0,15 c 0,0 2.6429774,-5 5,-5 8.503262,0 16.829873,0 25,0 1.86339,0 5,-2.5 5,-2.5 0,0 -3.136615,-2.5 -5,-2.5 -8.289981,0 -16.363482,0 -25,0 -2.3570226,0 -5,-5 -5,-5 z"
       id="path5418"
       inkscape:connector-curvature="0"
       sodipodi:nodetypes="ccsscssc" />
    <path
       sodipodi:nodetypes="ccsscssc"
       inkscape:connector-curvature="0"
       id="path5950"
       d="m 0,1022.3622 0,15 c 0,0 2.6429774,-5 5,-5 8.503262,0 16.829873,0 25,0 1.86339,0 5,-2.5 5,-2.5 0,0 -3.136615,-2.5 -5,-2.5 -8.289981,0 -16.363482,0 -25,0 -2.3570226,0 -5,-5 -5,-5 z"
       style="fill:url(#linearGradient5954);fill-opacity:1.0;stroke:#000000;stroke-width:1px;stroke-linecap:butt;stroke-linejoin:miter;stroke-opacity:1" />
    <path
       style="fill:url(#linearGradient5979);fill-opacity:1.0;stroke:#000000;stroke-width:1px;stroke-linecap:butt;stroke-linejoin:miter;stroke-opacity:1"
       d="m 0,1029.8622 0,15 c 0,0 2.6429774,-5 5,-5 8.503262,0 16.829873,0 25,0 1.86339,0 5,-2.5 5,-2.5 0,0 -3.136615,-2.5 -5,-2.5 -8.289981,0 -16.363482,0 -25,0 -2.3570226,0 -5,-5 -5,-5 z"
       id="path5975"
       inkscape:connector-curvature="0"
       sodipodi:nodetypes="ccsscssc" />
  </g>
</svg>
